<?xml version="1.0" encoding="utf-8"?>
<!-- Generator: Adobe Illustrator 21.0.2, SVG Export Plug-In . SVG Version: 6.00 Build 0)  -->
<svg version="1.1" id="Layer_1" xmlns="http://www.w3.org/2000/svg" xmlns:xlink="http://www.w3.org/1999/xlink" x="0px" y="0px"
	 viewBox="0 0 800 450" style="enable-background:new 0 0 800 450;" xml:space="preserve">
<style type="text/css">
	.st0{fill:url(#SVGID_1_);}
	.st1{fill:#FFFFFF;}
</style>
<linearGradient id="SVGID_1_" gradientUnits="userSpaceOnUse" x1="87.5" y1="-87.5" x2="712.5" y2="537.5">
	<stop  offset="0" style="stop-color:#FC4968"/>
	<stop  offset="1" style="stop-color:#FB9564"/>
</linearGradient>
<rect class="st0" width="800" height="450"/>
<g>
	<g>
		<path class="st1" d="M353.4,215.7l-9.7,33.3c-0.4,1.5-1.8,2.4-3.3,2.4s-2.6-0.8-3.2-2.2l-15.5-42.4c-0.2-0.5-0.3-1.1-0.3-1.5
			c0-1.9,1.5-3.4,3.4-3.4c1.5,0,2.6,0.8,3.2,2.2l12.2,34.8l10-34.8c0.3-1.1,1.4-2.2,3.2-2.2s2.8,1.2,3.2,2.2l10,34.8l12.2-34.8
			c0.5-1.4,1.7-2.2,3.2-2.2c1.9,0,3.4,1.5,3.4,3.4c0,0.4-0.1,0.9-0.3,1.5l-15.5,42.4c-0.5,1.4-1.7,2.2-3.2,2.2s-2.8-0.9-3.3-2.4
			L353.4,215.7z"/>
		<path class="st1" d="M412.9,201.4c-8.8,0-14.5,3.7-17.4,8.3c-0.3,0.6-0.6,1.2-0.5,2c0.1,1.6,1.5,2.8,3,2.8c0.9,0,1.7-0.3,2.7-1.5
			c3.3-3.7,6.6-5.4,12.2-5.4c7.7,0,12.4,4.4,12.4,11.6v13.1c0,8.9-7,13.5-14.4,13.5c-8.2,0-12-3.5-12-8.9c0-6.1,4.7-8.9,11.6-8.9h6
			c1.6,0,2.9-1.3,2.9-2.9l0,0c0-1.6-1.3-2.9-2.9-2.9h-6c-11.4,0-18.4,5.6-18.4,14.8c0,9.7,7,15,18.2,15c6.3,0,12.4-2.6,15-7.6v3.7
			c0,1.6,1,3,2.6,3.3c2.1,0.4,4-1.2,4-3.2v-28.9C431.8,208.6,425.1,201.4,412.9,201.4z"/>
		<path class="st1" d="M571.9,201.4c-8.8,0-14.5,3.7-17.4,8.3c-0.3,0.6-0.6,1.2-0.5,2c0.1,1.6,1.5,2.8,3,2.8c0.9,0,1.7-0.3,2.7-1.5
			c3.3-3.7,6.6-5.4,12.2-5.4c7.7,0,12.4,4.4,12.4,11.6v13.1c0,8.9-7,13.5-14.4,13.5c-8.2,0-12-3.5-12-8.9c0-6.1,4.7-8.9,11.6-8.9h6
			c1.6,0,2.9-1.3,2.9-2.9l0,0c0-1.6-1.3-2.9-2.9-2.9h-6c-11.4,0-18.4,5.6-18.4,14.8c0,9.7,7,15,18.2,15c6.3,0,12.4-2.6,15-7.6v3.7
			c0,1.6,1,3,2.6,3.3c2.1,0.4,4-1.2,4-3.2v-28.9C590.9,208.6,584.1,201.4,571.9,201.4z"/>
		<path class="st1" d="M486,220v28.1c0,1.9-1.5,3.4-3.4,3.4c-1.9,0-3.4-1.5-3.4-3.4v-26.7c0-8.3-2.4-14-12.6-14
			c-10.4,0-14,6.3-14,14.7v26c0,1.9-1.5,3.4-3.4,3.4c-1.9,0-3.4-1.5-3.4-3.4v-42.7c0-1.9,1.5-3.4,3.4-3.4c1.9,0,3.4,1.5,3.4,3.4v3.4
			c2-4,7.1-7.4,14-7.4C482.9,201.4,486,211.1,486,220z"/>
		<path class="st1" d="M533.2,208.2v-29.1c0-1.9,1.5-3.4,3.4-3.4c1.9,0,3.4,1.5,3.4,3.4v52.1c0,13.9-8.6,20.7-20.6,20.7
			c-13.6,0-21.5-8.1-21.5-25.3c0-17.2,7.6-25.2,21.1-25.2C525.6,201.4,530.8,204.9,533.2,208.2z M533.2,216.8c0,0-4-9.2-13.9-9.2
			c-9.6,0-14.8,6.2-14.8,19.1c0,13.1,5.2,19.2,14.8,19.2c8.1,0,13.9-4.6,13.9-14.6V216.8z"/>
		<path class="st1" d="M603.5,246.5c0-3.5,1.9-5,4.9-5s4.9,1.6,4.9,5c0,3.5-1.9,4.9-4.9,4.9S603.5,250,603.5,246.5z"/>
	</g>
	<g>
		<path class="st1" d="M263.9,218.6c-1.6,0-2.9-1.3-2.9-2.9v-6h-6c-1.6,0-2.9-1.3-2.9-2.9s1.3-2.9,2.9-2.9h6v-6
			c0-1.6,1.3-2.9,2.9-2.9s2.9,1.3,2.9,2.9v6h6c1.6,0,2.9,1.3,2.9,2.9s-1.3,2.9-2.9,2.9h-6v6C266.8,217.3,265.5,218.6,263.9,218.6z"
			/>
		<path class="st1" d="M232.4,268.3c-27.6-25.1-45.8-41.6-45.8-61.3l0-0.2c0-3.2,0.5-6.4,1.6-9.3l0.1-0.3
			c2.8-7.5,8.7-13.4,16.2-16.2l0.2-0.1l0.2-0.1c3-1.1,6.1-1.6,9.3-1.6h0.2c8.7,0,17.2,4,22.9,10.6l1.8,2.1l1.8-2.1
			c5.7-6.7,14.2-10.6,22.9-10.6h0.2c3.2,0,6.3,0.5,9.3,1.6l0.1,0l0.2,0.1c7.5,2.8,13.4,8.7,16.2,16.2l0.1,0.2l0,0.1
			c1.1,3,1.6,6.1,1.6,9.3v0.2c0,19.6-18.3,36.2-46,61.3l-6.5,5.9L232.4,268.3z M214.4,185.5c-12.3,0-21.5,9.2-21.5,21.5
			c0,16.9,17.5,32.7,44,56.7l2.1,2.1l2.2-2.2c12.5-11.3,23.3-21.1,30.9-29.9l0.8-1l-1.2,0.4c-2.6,0.8-5.2,1.1-7.9,1.1
			c-15.2,0-27.6-12.4-27.6-27.6c0-6.5-3-12.6-8.2-16.8C224,187.1,219.2,185.5,214.4,185.5z M263.7,185.5c-4.3,0-8.6,1.3-12.4,3.6
			c-5.7,4.1-9.1,10.7-9.1,17.6c0,12,9.7,21.7,21.7,21.7c8.3,0,15.8-4.7,19.5-12.1c1.2-3.2,1.8-6.3,1.8-9.4
			C285.1,194.8,275.9,185.5,263.7,185.5z"/>
	</g>
</g>
</svg>
